<?xml version="1.0" standalone="no"?>
<!DOCTYPE svg PUBLIC "-//W3C//DTD SVG 20010904//EN"
 "http://www.w3.org/TR/2001/REC-SVG-20010904/DTD/svg10.dtd">
<svg version="1.0" xmlns="http://www.w3.org/2000/svg"
 width="263.000000pt" height="263.000000pt" viewBox="0 0 263.000000 263.000000"
 preserveAspectRatio="xMidYMid meet">
<g transform="translate(0.000000,263.000000) scale(0.050000,-0.050000)"
fill="#000000" stroke="none">
<path d="M2119 5230 c-1683 -335 -2607 -2209 -1844 -3740 813 -1630 2971
-1972 4239 -671 1330 1364 798 3663 -996 4303 -384 136 -1012 185 -1399 108z
m1065 -748 c113 -126 90 -191 -164 -450 -227 -233 -242 -252 -189 -252 143 0
705 -479 793 -676 71 -158 -24 -304 -197 -304 -86 0 -96 7 -345 248 -300 290
-340 315 -511 315 -191 0 -230 -27 -645 -446 -618 -623 -617 -663 27 -1300
344 -341 409 -397 487 -417 174 -46 347 10 490 160 404 424 591 497 697 273
61 -129 35 -176 -265 -475 -349 -349 -478 -417 -790 -418 -366 0 -490 78
-1039 652 -477 497 -553 654 -496 1020 47 298 54 307 1022 1276 l878 878 96
-11 c74 -9 108 -25 151 -73z m969 -2031 c107 -75 109 -252 5 -340 l-61 -51
-858 0 c-921 0 -938 2 -990 103 -52 99 -19 246 66 295 61 36 1786 29 1838 -7z"/>
</g>
</svg>
